<?xml version="1.0" encoding="UTF-8"?>
<svg width="450px" height="512px" viewBox="0 0 450 512" version="1.1" xmlns="http://www.w3.org/2000/svg" xmlns:xlink="http://www.w3.org/1999/xlink">
    <!-- Generator: Sketch 52.5 (67469) - http://www.bohemiancoding.com/sketch -->
    <title>cupkake</title>
    <desc>Created with Sketch.</desc>
    <g id="Page-1" stroke="none" stroke-width="1" fill="none" fill-rule="evenodd">
        <g id="cupkake" transform="translate(0.000000, -1.000000)">
            <g id="cupcake" stroke-width="1" fill-rule="evenodd">
                <path d="M425.271,300.515 C425.271,189.909 335.606,159.556 224.999,159.556 C114.392,159.556 24.727,189.909 24.727,300.515 C24.727,411.122 114.391,500.786 224.998,500.786 C335.605,500.786 425.271,411.122 425.271,300.515 Z" id="Path" fill="#866539"></path>
                <path d="M435.384,311.413 C436.542,305.42 432.495,300.515 426.389,300.515 L23.609,300.515 C17.504,300.515 13.456,305.42 14.614,311.413 L51.45,502.102 C52.609,508.095 58.549,513 64.655,513 L385.345,513 C391.45,513 397.392,508.095 398.549,502.102 L435.384,311.413 Z" id="Path" fill="#FDBA55"></path>
                <circle id="Oval" fill="#3F4963" cx="110.169" cy="375.388" r="14.88"></circle>
                <g id="Group" transform="translate(86.000000, 410.000000)" fill="#FF6376">
                    <path d="M40.089,17.389 L8.255,17.389 C3.717,17.389 0.037,13.71 0.037,9.171 C0.037,4.633 3.716,0.953 8.255,0.953 L40.089,0.953 C44.627,0.953 48.307,4.632 48.307,9.171 C48.307,13.71 44.628,17.389 40.089,17.389 Z" id="Path"></path>
                    <path d="M269.744,17.389 L237.91,17.389 C233.372,17.389 229.692,13.71 229.692,9.171 C229.692,4.633 233.371,0.953 237.91,0.953 L269.744,0.953 C274.282,0.953 277.962,4.632 277.962,9.171 C277.961,13.71 274.282,17.389 269.744,17.389 Z" id="Path"></path>
                </g>
                <g id="Group" transform="translate(179.000000, 360.000000)" fill="#3F4963">
                    <path d="M27.37,57.108 C12.566,57.108 0.522,45.064 0.522,30.26 C0.522,25.722 4.201,22.042 8.74,22.042 C13.279,22.042 16.958,25.721 16.958,30.26 C16.958,36.001 21.629,40.672 27.37,40.672 C33.111,40.672 37.782,36.001 37.782,30.26 C37.782,25.722 41.461,22.042 46,22.042 C50.538,22.042 54.218,25.721 54.218,30.26 C54.218,45.063 42.173,57.108 27.37,57.108 Z" id="Path"></path>
                    <path d="M64.63,57.108 C49.826,57.108 37.782,45.064 37.782,30.26 C37.782,25.722 41.461,22.042 46,22.042 C50.539,22.042 54.218,25.721 54.218,30.26 C54.218,36.001 58.889,40.672 64.63,40.672 C70.371,40.672 75.042,36.001 75.042,30.26 C75.042,25.722 78.721,22.042 83.26,22.042 C87.798,22.042 91.478,25.721 91.478,30.26 C91.478,45.063 79.434,57.108 64.63,57.108 Z" id="Path"></path>
                    <path d="M175.707,31.327 C171.169,31.327 167.489,27.648 167.489,23.109 C167.489,19.435 164.5,16.447 160.827,16.447 C157.153,16.447 154.164,19.436 154.164,23.109 C154.164,27.647 150.485,31.327 145.946,31.327 C141.408,31.327 137.728,27.648 137.728,23.109 C137.728,10.373 148.089,0.012 160.826,0.012 C173.562,0.012 183.923,10.374 183.923,23.109 C183.925,27.648 180.246,31.327 175.707,31.327 Z" id="Path"></path>
                </g>
                <g id="Group" transform="translate(15.000000, 300.000000)" fill="#FFD553">
                    <path d="M27.436,139.748 C26.422,139.748 25.423,139.805 24.432,139.887 L36.451,202.102 C37.088,205.396 39.172,208.354 41.931,210.356 C55.043,204.731 64.23,191.712 64.23,176.541 C64.228,156.22 47.755,139.748 27.436,139.748 Z" id="Path"></path>
                    <path d="M39.377,55.201 C39.377,34.881 22.904,18.41 2.585,18.41 C2.045,18.41 1.508,18.429 0.973,18.451 L14.779,89.917 C29.104,84.883 39.377,71.246 39.377,55.201 Z" id="Path"></path>
                    <path d="M363.112,157.812 C342.792,157.812 326.32,174.284 326.32,194.603 C326.32,201.306 328.121,207.587 331.254,213 L370.344,213 C376.449,213 382.391,208.095 383.548,202.102 L389.871,169.368 C383.164,162.257 373.661,157.812 363.112,157.812 Z" id="Path"></path>
                    <path d="M410.271,30.171 C389.951,30.171 373.479,46.643 373.479,66.962 C373.479,84.686 386.012,99.479 402.698,102.97 L416.652,30.734 C414.578,30.371 412.449,30.171 410.271,30.171 Z" id="Path"></path>
                    <path d="M173.207,0.515 C173.207,20.836 189.68,37.306 209.999,37.306 C230.318,37.306 246.791,20.836 246.791,0.515 L173.207,0.515 Z" id="Path"></path>
                    <path d="M246.791,213 C246.791,192.679 230.318,176.208 209.999,176.208 C189.68,176.208 173.206,192.679 173.206,213 L246.791,213 Z" id="Path"></path>
                </g>
                <path d="M395.153,149.243 L393.545,149.243 C394.888,144.53 395.624,139.561 395.624,134.418 C395.624,110.263 379.761,89.819 357.886,82.92 C358.352,53.423 334.991,15.747 326.372,7.127 C318.203,-1.044 304.954,-1.044 296.784,7.127 C292.698,11.213 290.656,16.566 290.656,21.921 C290.656,30.065 275.505,80.426 211.683,80.426 L108.37,80.426 C78.552,80.426 54.378,104.599 54.378,134.418 C54.378,139.561 55.112,144.531 56.455,149.243 L54.846,149.243 C25.028,149.243 0.854,173.415 0.854,203.235 C0.854,233.053 25.027,257.225 54.846,257.225 L395.152,257.225 C424.97,257.225 449.144,233.052 449.144,203.235 C449.144,173.415 424.971,149.243 395.153,149.243 Z" id="Path" fill="#FF9596"></path>
                <g id="Group" transform="translate(53.000000, 60.000000)" fill="#FFFFFF">
                    <path d="M8.244,171.739 C6.141,171.739 4.039,170.937 2.434,169.333 C-0.775,166.124 -0.775,160.92 2.434,157.711 L25.237,134.906 C28.447,131.697 33.649,131.697 36.859,134.905 C40.068,138.114 40.068,143.318 36.859,146.527 L14.056,169.332 C12.45,170.937 10.346,171.739 8.244,171.739 Z" id="Path"></path>
                    <path d="M232.108,40.046 C230.005,40.046 227.902,39.244 226.298,37.639 C223.089,34.43 223.089,29.227 226.298,26.018 L249.1,3.216 C252.309,0.007 257.513,0.007 260.721,3.216 C263.93,6.425 263.93,11.628 260.721,14.837 L237.918,37.64 C236.313,39.243 234.21,40.046 232.108,40.046 Z" id="Path"></path>
                </g>
                <g id="Group" transform="translate(92.000000, 129.000000)" fill="#FF6376">
                    <path d="M287.197,102.738 C285.094,102.738 282.991,101.936 281.387,100.331 L258.583,77.527 C255.374,74.318 255.374,69.114 258.583,65.906 C261.792,62.697 266.996,62.697 270.205,65.906 L293.009,88.71 C296.218,91.919 296.218,97.123 293.009,100.331 C291.403,101.936 289.301,102.738 287.197,102.738 Z" id="Path"></path>
                    <path d="M31.752,39.862 C29.649,39.862 27.546,39.06 25.942,37.455 L3.139,14.651 C-0.07,11.442 -0.07,6.238 3.139,3.03 C6.348,-0.179 11.552,-0.179 14.76,3.03 L37.563,25.834 C40.772,29.043 40.772,34.247 37.563,37.456 C35.958,39.06 33.855,39.862 31.752,39.862 Z" id="Path"></path>
                </g>
                <path d="M166.451,215.708 C164.348,215.708 162.245,214.905 160.641,213.301 C157.432,210.092 157.432,204.889 160.641,201.68 L183.444,178.876 C186.653,175.667 191.857,175.667 195.066,178.876 C198.275,182.085 198.275,187.288 195.066,190.498 L172.263,213.301 C170.658,214.906 168.555,215.708 166.451,215.708 Z" id="Path" fill="#866539"></path>
                <path d="M168.798,142.637 C166.695,142.637 164.593,141.835 162.988,140.231 C159.779,137.022 159.779,131.818 162.987,128.609 L185.79,105.804 C189,102.595 194.202,102.595 197.412,105.804 C200.621,109.013 200.621,114.217 197.413,117.426 L174.61,140.231 C173.005,141.834 170.902,142.637 168.798,142.637 Z" id="Path" fill="#FFD553"></path>
                <path d="M261.791,165.438 C259.688,165.438 257.585,164.636 255.981,163.031 L233.178,140.228 C229.969,137.019 229.969,131.815 233.178,128.607 C236.387,125.398 241.591,125.398 244.799,128.607 L267.601,151.41 C270.81,154.619 270.81,159.823 267.601,163.032 C265.997,164.636 263.895,165.438 261.791,165.438 Z" id="Path" fill="#FF6376"></path>
                <path d="M352.722,154.038 C350.619,154.038 348.516,153.236 346.912,151.631 L324.109,128.827 C320.9,125.618 320.9,120.414 324.109,117.205 C327.318,113.996 332.522,113.995 335.73,117.205 L358.533,140.009 C361.742,143.218 361.742,148.422 358.533,151.63 C356.928,153.236 354.824,154.038 352.722,154.038 Z" id="Path" fill="#FFFFFF"></path>
                <path d="M254.308,231.738 C252.205,231.738 250.102,230.936 248.498,229.331 C245.289,226.122 245.289,220.918 248.498,217.71 L271.302,194.906 C274.511,191.697 279.715,191.697 282.924,194.906 C286.133,198.115 286.133,203.319 282.924,206.527 L260.12,229.331 C258.514,230.936 256.41,231.738 254.308,231.738 Z" id="Path" fill="#FFD553"></path>
            </g>
            <path d="M165.624129,457.312 C179.968097,457.312 179.968097,457.312 194.312065,457.312 C208.656032,457.312 208.656032,457.312 223,457.312 C235.216769,457.312 235.216769,457.312 247.433537,457.312 C265.75869,457.312 265.75869,457.312 284.083843,457.312 C301.434507,457.312 315.5,471.377493 315.5,488.728157 L315.5,512.5 L130.5,512.5 L130.5,512 L130.502796,488.901236 C132.410124,470.939914 147.56182,457.312 165.624129,457.312 Z" id="Rectangle" stroke="#98AAD9" stroke-width="1" fill="#FFFFFF" fill-rule="evenodd" opacity="0.905947731"></path>
            <text id="HSG" font-family="ArialRoundedMTBold, Arial Rounded MT Bold" font-size="33" font-weight="normal" fill="#3F4963">
                <tspan x="185.890625" y="499">HSG </tspan>
            </text>
        </g>
    </g>
</svg>