<svg height="512pt" viewBox="-82 0 512 512.00005" width="512pt" xmlns="http://www.w3.org/2000/svg"><path d="m240.050781 83.851562c2.5625-30.097656-23.679687-60.765624-46.640625-74.402343-7.851562-4.664063-17.859375-.535157-20.304687 8.265625-24.253907 87.351562-171.484375 130.917968-107.550781 222.289062h174.667968zm0 0" fill="#f6e3a3"/><path d="m264.375 173.277344c4.214844-18.488282-7.199219-65.777344-24.324219-89.425782-19.566406 118.363282-245.128906 124.472657-189.832031 236.726563h215.035156zm0 0" fill="#fcf2d0"/><path d="m82.347656 360.039062c0-15.082031-17.621094-24.953124-32.128906-39.464843 68.421875-38.417969 214.15625-68.214844 214.15625-147.296875 41.160156 26.148437 46.179688 133.785156 19.074219 186.761718zm0 0" fill="#f6e3a3"/><path d="m300.824219 319.335938h-253.253907l20.625 141.351562c2.609376 17.894531 16.066407 32.28125 33.746094 36.082031 47.628906 10.238281 96.886719 10.238281 144.511719 0 17.679687-3.800781 31.140625-18.1875 33.75-36.082031zm0 0" fill="#f7ef87"/><path d="m47.570312 319.335938 20.625 141.351562c2.609376 17.894531 16.066407 32.28125 33.746094 36.082031 31.949219 6.867188 64.628906 9.105469 97.058594 6.757813-53.492188-30.121094-79.417969-118.976563-68.75-184.191406zm0 0" fill="#efd176"/><path d="m129.003906 411.773438c0-11.625-11.832031-21.046876-26.425781-21.046876s-26.425781 9.421876-26.425781 21.046876c0 11.621093 11.832031 21.042968 26.425781 21.042968s26.425781-9.421875 26.425781-21.042968zm0 0" fill="#fff"/><path d="m272.246094 411.773438c0-11.625-11.832032-21.046876-26.425782-21.046876-14.597656 0-26.429687 9.421876-26.429687 21.046876 0 11.621093 11.832031 21.042968 26.429687 21.042968 14.59375 0 26.425782-9.421875 26.425782-21.042968zm0 0" fill="#fff"/><path d="m174.199219 330.207031c-62.855469 0-97.417969-4.734375-134.011719-9.746093-3.414062-.46875-6.851562-.9375-10.34375-1.410157-14.113281-1.902343-24.011719-14.890625-22.105469-29.003906 1.90625-14.109375 14.890625-24.019531 29.003907-22.105469 3.523437.476563 6.996093.953125 10.445312 1.425782 36.3125 4.972656 67.671875 9.269531 127.011719 9.269531 59.335937 0 90.699219-4.296875 127.011719-9.269531 3.449218-.472657 6.921874-.949219 10.445312-1.425782 14.101562-1.894531 27.097656 7.992188 29.003906 22.105469s-7.992187 27.101563-22.105468 29.003906c-3.492188.472657-6.929688.941407-10.34375 1.410157-36.59375 5.011718-71.160157 9.746093-134.011719 9.746093zm0 0" fill="#e1b89a"/><path d="m200.097656 278.332031c-8.035156.199219-16.625.304688-25.898437.304688-59.339844 0-90.699219-4.296875-127.011719-9.273438-3.449219-.46875-6.921875-.945312-10.445312-1.421875-14.113282-1.914062-27.101563 7.992188-29.003907 22.105469-1.90625 14.113281 7.992188 27.097656 22.105469 29.003906 3.492188.472657 6.929688.941407 10.34375 1.410157 36.59375 5.011718 71.15625 9.746093 134.011719 9.746093 8.875 0 17.171875-.097656 25.003906-.273437-12.527344-11.648438-16.160156-34.285156.894531-51.601563zm0 0" fill="#d2996f"/><path d="m109.519531 475.925781c-1.921875 0-3.839843-.730469-5.304687-2.195312-2.929688-2.929688-2.929688-7.675781 0-10.605469l10.898437-10.898438c2.929688-2.929687 7.679688-2.929687 10.609375 0 2.925782 2.929688 2.925782 7.675782 0 10.605469l-10.902344 10.902344c-1.464843 1.460937-3.382812 2.191406-5.300781 2.191406zm0 0" fill="#f7ef87"/><path d="m168.746094 475.925781c-1.917969 0-3.835938-.730469-5.300782-2.195312-2.929687-2.929688-2.929687-7.675781 0-10.605469l10.898438-10.898438c2.929688-2.929687 7.679688-2.929687 10.605469 0 2.929687 2.929688 2.929687 7.675782 0 10.605469l-10.898438 10.902344c-1.464843 1.460937-3.382812 2.191406-5.304687 2.191406zm0 0" fill="#efd176"/><path d="m227.976562 475.925781c-1.917968 0-3.835937-.730469-5.300781-2.195312-2.929687-2.929688-2.929687-7.675781 0-10.605469l10.898438-10.898438c2.929687-2.929687 7.679687-2.929687 10.605469 0 2.929687 2.929688 2.929687 7.675782 0 10.605469l-10.898438 10.902344c-1.464844 1.460937-3.382812 2.191406-5.304688 2.191406zm0 0" fill="#efd176"/><path d="m124.511719 153.78125c-1.917969 0-3.839844-.734375-5.304688-2.195312l-9.9375-9.941407c-2.929687-2.929687-2.929687-7.675781 0-10.605469 2.929688-2.925781 7.675781-2.925781 10.605469 0l9.9375 9.9375c2.929688 2.929688 2.929688 7.679688 0 10.609376-1.464844 1.460937-3.382812 2.195312-5.300781 2.195312zm0 0" fill="#e26e7e"/><path d="m250.671875 262.800781c-1.917969 0-3.839844-.730469-5.304687-2.195312-2.925782-2.929688-2.925782-7.675781 0-10.605469l9.941406-9.941406c2.929687-2.925782 7.675781-2.925782 10.605468 0 2.929688 2.929687 2.929688 7.679687 0 10.609375l-9.941406 9.9375c-1.460937 1.464843-3.382812 2.195312-5.300781 2.195312zm0 0" fill="#e26e7e"/><path d="m187.117188 96.320312c-1.917969 0-3.835938-.730468-5.300782-2.195312-2.929687-2.929688-2.929687-7.675781 0-10.605469l9.9375-9.9375c2.929688-2.929687 7.675782-2.929687 10.605469 0 2.929687 2.929688 2.929687 7.675781 0 10.605469l-9.9375 9.9375c-1.464844 1.464844-3.382813 2.195312-5.304687 2.195312zm0 0" fill="#89d47f"/><path d="m110 262.800781c-1.917969 0-3.835938-.730469-5.300781-2.195312-2.929688-2.929688-2.929688-7.675781 0-10.605469l9.9375-9.941406c2.929687-2.925782 7.675781-2.925782 10.605469 0 2.929687 2.929687 2.929687 7.679687 0 10.609375l-9.9375 9.9375c-1.464844 1.464843-3.382813 2.195312-5.304688 2.195312zm0 0" fill="#8eafe2"/><path d="m226.363281 190.714844c-1.917969 0-3.835937-.734375-5.300781-2.195313l-9.941406-9.941406c-2.925782-2.929687-2.925782-7.675781 0-10.605469 2.929687-2.925781 7.679687-2.925781 10.605468 0l9.941407 9.941406c2.929687 2.929688 2.929687 7.675782 0 10.605469-1.464844 1.460938-3.382813 2.195313-5.304688 2.195313zm0 0" fill="#eea849"/><path d="m173.320312 229.683594c-4.140624 0-7.496093-3.359375-7.496093-7.5v-14.058594c0-4.140625 3.355469-7.496094 7.496093-7.496094 4.144532 0 7.5 3.355469 7.5 7.496094v14.058594c0 4.140625-3.355468 7.5-7.5 7.5zm0 0" fill="#89d47f"/><path d="m222.917969 381.445312v9.332032c0 4.144531 3.355469 7.5 7.5 7.5 4.140625 0 7.5-3.355469 7.5-7.5v-9.332032c0-4.140624-3.359375-7.496093-7.5-7.496093-4.144531 0-7.5 3.355469-7.5 7.496093zm-112.4375 0v9.332032c0 4.144531 3.355469 7.5 7.5 7.5 4.140625 0 7.5-3.355469 7.5-7.5v-9.332032c0-4.140624-3.359375-7.496093-7.5-7.496093-4.144531 0-7.5 3.355469-7.5 7.496093zm72.886719 4.820313c-2.316407 2.65625-5.65625 4.179687-9.167969 4.179687s-6.851563-1.523437-9.167969-4.179687c-2.722656-3.121094-7.460938-3.445313-10.582031-.726563-3.121094 2.722657-3.449219 7.457032-.726563 10.578126 5.164063 5.929687 12.628906 9.324218 20.476563 9.324218 7.847656 0 15.3125-3.398437 20.472656-9.324218 2.722656-3.121094 2.398437-7.859376-.726563-10.578126-3.121093-2.722656-7.859374-2.398437-10.578124.726563zm164.722656-97.222656c-2.449219-18.175781-19.238282-30.972657-37.4375-28.53125-1.109375.148437-2.210938.296875-3.316406.449219-2.542969-42.398438-15.253907-75.617188-34.851563-91.105469 2.320313-23.179688-9.304687-65.121094-24.796875-88.160157.507812-14.6875-4.71875-30.351562-15.222656-45.496093-9.207032-13.269531-22.046875-25.375-35.226563-33.199219-5.734375-3.40625-12.558593-3.9375-18.726562-1.460938-6.222657 2.503907-10.828125 7.664063-12.632813 14.167969-.957031 3.445313-2.160156 6.9375-3.570312 10.378907-1.574219 3.828124.253906 8.210937 4.085937 9.785156 3.832031 1.574218 8.214844-.253906 9.785157-4.085938 1.640624-3.988281 3.035156-8.046875 4.152343-12.066406.542969-1.960938 1.917969-3.515625 3.769531-4.261719 1.058594-.421875 3.175782-.929687 5.480469.4375 22.71875 13.496094 44.957031 42.226563 43.011719 67.066407-8.640625 51.078124-58.933594 80.144531-107.574219 108.257812-21.160156 12.230469-41.667969 24.09375-57.859375 37.445312-11.894531-20.144531-13.136718-38.769531-3.992187-58.0625 9.605469-20.277343 29.226562-39.265624 50-59.375 15.449219-14.953124 31.425781-30.417968 44.277343-47.449218 2.492188-3.304688 1.835938-8.007813-1.472656-10.503906-3.304687-2.492188-8.007812-1.835938-10.503906 1.472656-12.144531 16.097656-27.695312 31.148437-42.730469 45.703125-40.960937 39.648437-83.273437 80.609375-46.851562 138.542969-6.566407 6.773437-11.945313 13.984374-15.730469 21.847656-.804688-.109375-1.601562-.21875-2.40625-.328125-8.8125-1.195313-17.5625 1.117187-24.636719 6.511719-7.070312 5.390624-11.617187 13.210937-12.808593 22.023437-1.1875 8.808594 1.125 17.558594 6.515624 24.628906 5.386719 7.070313 13.207032 11.617188 22.019532 12.808594 3.484375.472656 6.917968.941406 10.328125 1.410156.707031.09375 1.410156.191407 2.113281.289063l19.492188 133.585937c3.046874 20.886719 18.957031 37.894531 39.59375 42.332031 24.496093 5.265626 49.160156 7.898438 73.832031 7.898438 24.664062 0 49.339843-2.632812 73.832031-7.898438 12.296875-2.640624 23.132812-9.714843 30.503906-19.917968 2.425782-3.355469 1.671875-8.042969-1.683594-10.472656-3.359374-2.421876-8.046874-1.671876-10.472656 1.6875-5.195312 7.191406-12.832031 12.175781-21.5 14.039062-46.902344 10.082031-94.460937 10.082031-141.359375 0-14.542969-3.125-25.757812-15.113281-27.902343-29.832031l-18.871094-129.339844c31.089844 4.074219 64.179687 7.441406 117.453125 7.441406 53.273437 0 86.363281-3.371093 117.453125-7.441406l-16.792969 115.09375c-.597656 4.101563 2.242187 7.90625 6.339844 8.503906.367187.054688.730469.082031 1.09375.082031 3.660156 0 6.863281-2.6875 7.410156-6.417968l17.410156-119.34375c.707031-.097656 1.410157-.195313 2.117188-.292969 3.410156-.46875 6.84375-.9375 10.328125-1.40625 8.8125-1.191406 16.632812-5.738281 22.019531-12.8125 5.390625-7.070313 7.703125-15.816406 6.511719-24.628906zm-55.65625-26.046875c-31.378906 4.261718-60.777344 7.789062-110.6875 8.113281 18.144531-8.691406 36.105468-18.648437 51.011718-30.1875 20.835938-16.132813 33.199219-33.363281 37.445313-52.3125 12.3125 15.152344 20.433594 41.921875 22.230469 74.386719zm-159.910156-58.792969c43.925781-25.386719 93.066406-53.78125 110.136718-100.808594 10.917969 23.320313 17.40625 55.046875 14.402344 68.214844-.039062.171875-.0625.34375-.089844.511719-.007812.0625-.023437.121094-.03125.179687-.039062.3125-.058594.621094-.0625.929688 0 .015625-.003906.03125-.003906.046875 0 44.199218-53.210938 73.007812-111.125 97.488281-37.71875-1.039063-63.007812-4.132813-89.722656-7.761719 13.332031-22.28125 44.109375-40.082031 76.496094-58.800781zm185.027343 107.417969c-3.5.472656-6.941406.941406-10.359375 1.410156-36.332031 4.976562-70.648437 9.679688-132.992187 9.679688s-96.660157-4.703126-132.992188-9.679688c-3.417969-.46875-6.859375-.9375-10.359375-1.410156-9.992187-1.351563-17.027344-10.578125-15.675781-20.570313.652344-4.839843 3.152344-9.140625 7.039063-12.101562 3.214843-2.453125 7.058593-3.742188 11.035156-3.742188.824218 0 1.660156.054688 2.492187.167969 3.519531.472656 6.988281.949219 10.449219 1.425781 36.582031 5.007813 68.171875 9.335938 128.011719 9.335938 59.265625 0 90.824219-4.246094 126.984375-9.199219.347656-.046875.695312-.09375 1.046875-.140625 3.441406-.472656 6.910156-.949219 10.425781-1.421875 9.988281-1.34375 19.226562 5.6875 20.570312 15.675781 1.347657 9.992188-5.683593 19.21875-15.675781 20.570313zm0 0"/></svg>